<svg width="58" height="60" fill="none" xmlns="http://www.w3.org/2000/svg"><path d="M29 32.5c-7.648 0-13.87 6.17-13.87 13.75S21.352 60 29 60c7.646 0 13.87-6.17 13.87-13.75S36.645 32.5 29 32.5zm0 25c-6.256 0-11.348-5.047-11.348-11.25C17.652 40.048 22.743 35 29 35c6.256 0 11.348 5.048 11.348 11.25 0 6.203-5.092 11.25-11.348 11.25z" fill="#30C2FF"/><path d="M29 37.5c-.696 0-1.261.56-1.261 1.25v10c0 .69.565 1.25 1.26 1.25.697 0 1.262-.56 1.262-1.25v-10c0-.69-.565-1.25-1.261-1.25zm.883 15.347a1.308 1.308 0 00-1.79.026 1.258 1.258 0 00.025 1.775c.226.227.554.352.882.352.328 0 .656-.125.883-.377.252-.225.378-.55.378-.875 0-.325-.126-.648-.378-.9z" fill="#30C2FF"/><path d="M51.696 12.5h-29.15a3.777 3.777 0 01-3.587-2.565l-.222-.662A6.292 6.292 0 0012.757 5H6.305C2.83 5 0 7.805 0 11.25v30c0 3.447 2.83 6.25 6.304 6.25h5.044c.696 0 1.26-.56 1.26-1.25S12.045 45 11.349 45H6.304c-2.085 0-3.782-1.682-3.782-3.75v-30c0-2.068 1.697-3.75 3.782-3.75h6.454a3.772 3.772 0 013.585 2.563l.225.664A6.292 6.292 0 0022.547 15h29.149c2.085 0 3.782 1.682 3.782 3.75v22.5c0 2.068-1.697 3.75-3.782 3.75h-5.044c-.696 0-1.26.56-1.26 1.25s.564 1.25 1.26 1.25h5.044c3.477 0 6.304-2.803 6.304-6.25v-22.5c0-3.445-2.827-6.25-6.304-6.25z" fill="#30C2FF"/><path d="M49.174 0H8.826C5.351 0 2.522 2.805 2.522 6.25c0 .69.565 1.25 1.26 1.25.697 0 1.262-.56 1.262-1.25 0-2.068 1.697-3.75 3.782-3.75h40.348c2.086 0 3.783 1.682 3.783 3.75v7.5c0 .69.565 1.25 1.26 1.25.697 0 1.261-.56 1.261-1.25v-7.5c0-3.445-2.827-6.25-6.304-6.25z" fill="#30C2FF"/></svg>