<svg width="92" height="120" fill="none" xmlns="http://www.w3.org/2000/svg"><path d="M88.95 18.704H59.986v-3.156a2.805 2.805 0 00-2.806-2.805h-8.495V2.805a2.805 2.805 0 10-5.611 0v9.938h-8.3a2.805 2.805 0 00-2.805 2.805v3.156H2.805A2.805 2.805 0 000 21.51v58.672a2.805 2.805 0 002.805 2.805h10.46v1.716a2.805 2.805 0 002.805 2.805h7.508l-3.817 18.915-.002.007-2.06 10.209a2.806 2.806 0 005.5 1.11l1.604-7.951h18.27v7.396a2.804 2.804 0 105.61 0v-7.396H66.95l1.606 7.951a2.807 2.807 0 003.304 2.195 2.806 2.806 0 002.195-3.305l-2.06-10.207a.05.05 0 00-.002-.01l-3.818-18.914h7.509a2.805 2.805 0 002.805-2.805v-1.716h10.46a2.805 2.805 0 002.805-2.805V21.51a2.804 2.804 0 00-2.804-2.806zm-51.371-.35h16.795v5.12H37.579v-5.12zm-11.642 85.832l3.365-16.678h13.77v16.678H25.938zm39.883 0H48.684V87.508h13.77l3.366 16.678zm7.06-22.288H18.877V78.21H72.88v3.688z" fill="#03A9F4"/></svg>