<svg width="106" height="120" fill="none" xmlns="http://www.w3.org/2000/svg"><path d="M52.203 120c-13.876 0-17.857-5.055-19.557-7.214l-.082-.099c-3.91-4.94-3.83-10.713-3.561-13.223-.259-3.71-2.276-6.65-3.288-7.91-.543-.27-1.078-.55-1.6-.844l-.172.168-3.387-2.25c-3.715-2.472-6.365-5.147-8.197-7.43l-7.53 5.887-2.072-13.609c-.983-6.45-.698-11.822-.11-15.728L0 57.061v-3.84c0-.761.213-7.442 7.197-19.015C-.3 26.16 2.604 14.726 3.751 11.221c1.395-4.258 4.09-7.38 4.393-7.72L11.254 0l2.956 3.628c1.808 2.219 4.184 4.94 5.43 6.146h.067c1.37 0 4.713-.449 11.716-3.458 2.636-1.133 11.563-4.073 21.085-4.073h.093c8.99.02 17.758 2.948 20.379 4.073 6.865 2.949 10.213 3.44 11.632 3.458.965-1.212 2.628-3.699 3.849-5.706L90.796.231l3.533 2.788c.412.325 4.07 3.297 6.167 7.807 3.148 6.773 2.831 16.919-3.465 23.553 1.856 3.462 5.276 10.156 6.383 14.406l2.186 8.389-3.826.676c.578 3.909.847 9.239-.126 15.626l-2.072 13.606-7.532-5.883c-1.83 2.282-4.482 4.957-8.194 7.426 0 0-4.617 2.66-5.16 2.93-1.012 1.259-3.034 4.205-3.287 7.927.266 2.508.337 8.271-3.565 13.205l-.176.225C69.879 115.21 66.16 120 52.202 120z" fill="#FEFEFE"/><path d="M52.203 117.185c-12.497 0-15.885-4.299-17.33-6.135l-.08-.105c-3.465-4.378-3.16-9.711-2.951-11.403-.258-5.13-3.214-8.968-4.34-10.25a34.682 34.682 0 01-3.81-2.126l-.094.095-1.471-.976c-4.64-3.087-7.503-6.498-9.198-9.115l-6.027 4.71-1.345-8.826c-1.141-7.49-.506-13.436.343-17.373l-3.069-.797V53.22c0-.292.093-7.162 7.986-19.482C2.465 26.85 5.33 15.495 6.446 12.093c1.242-3.796 3.717-6.61 3.822-6.729l.894-1.004.85 1.041c1.27 1.56 4.892 5.863 6.382 7.038.11.089.19.152 1.313.152 1.94 0 5.744-.64 12.839-3.688 2.32-.997 10.967-3.843 19.962-3.843h.093c8.505.021 16.786 2.78 19.256 3.843 7.097 3.048 10.899 3.688 12.839 3.688.264 0 1.065 0 1.218-.068 0 0 .013-.008.047-.04 1.25-1.125 3.976-5.4 4.92-6.953l.672-1.105 1.018.803c.14.11 3.501 2.79 5.354 6.78 2.605 5.606 2.845 15.863-4.426 21.804 1.985 3.562 6.037 11.314 7.176 15.681l1.416 5.44-3.61.64c.87 3.972 1.514 9.947.367 17.481l-1.344 8.827-6.03-4.711c-1.695 2.617-4.556 6.028-9.198 9.112 0 0-4.029 2.366-5.37 3.01-1.129 1.282-4.09 5.125-4.343 10.269.206 1.686.507 7.014-2.95 11.384l-.187.241c-1.513 1.947-4.656 5.999-17.223 5.999z" fill="#44302C"/><path d="M52.203 116.047c-12.21 0-15.273-4.236-16.515-5.808-3.308-4.178-2.86-9.414-2.7-10.652-.25-5.716-3.564-9.879-4.784-11.225a32.186 32.186 0 01-4.648-2.66l-.1.098-.694-.462c-5.011-3.334-7.9-7.038-9.527-9.855l-5.497 4.3-1.05-6.9c-1.202-7.882-.416-14.018.575-18.023l-3.29-.855v-.785c0-.29.097-7.15 8.373-19.739-7.967-5.765-6.493-15.906-4.814-21.037 1.184-3.615 3.59-6.327 3.59-6.327s4.646 5.7 6.56 7.214c.403.32.72.398 2.025.398 2.048 0 6.019-.655 13.292-3.782 2.265-.973 10.707-3.749 19.51-3.749h.092c8.312.019 16.39 2.713 18.802 3.749 7.277 3.127 11.245 3.782 13.293 3.782 1.32 0 1.65-.057 2.033-.404 1.645-1.482 5.13-7.208 5.13-7.208s3.267 2.579 5.028 6.369c2.275 4.895 3.118 15.282-4.867 21.024 1.613 2.818 6.327 11.579 7.548 16.266l1.107 4.252-3.583.635c1.029 4.053 1.84 10.243.625 18.22l-1.052 6.897-5.497-4.297c-1.624 2.817-4.513 6.521-9.528 9.855l-.693.462-.095-.095a32.766 32.766 0 01-4.648 2.657c-1.223 1.346-4.542 5.514-4.787 11.243.16 1.236.598 6.464-2.703 10.634-1.4 1.771-3.944 5.808-16.511 5.808z" fill="#44302C"/><path d="M93.019 13.795l-2.695 1.553-4.376 5.61-13.561-2.793H32.02L18.46 20.96l-4.377-5.611-2.694-1.553c-.73 2.568-.1 12.539 3.76 16.683 1.318 1.414 11.45 3.326 11.45 3.326l-3.457 34.531 7.474 16.662s6.272 5.82 6.472 14.834l4.268 5.967 10.49 1.847.006.123.35-.06.351.06.008-.123 10.49-1.847 4.269-5.967c.2-9.013 6.472-14.834 6.472-14.834l7.471-16.662-3.456-34.53s10.087-1.955 11.452-3.327c3.148-3.166 4.49-14.115 3.76-16.683z" fill="#44302C"/><path d="M95.613 50.797C91.05 33.28 76.281 22.228 76.281 22.228c1.887-.207 6.498-.354 6.498-.354s-.345 0 0 0c5.872 0 7.546-6.526 7.546-6.526-2.726 4.378-10.957 2.292-20.179-1.668-2.33-1.002-10.079-3.4-17.553-3.418-7.735-.016-15.563 2.381-17.975 3.418-9.222 3.96-17.814 6.046-20.537 1.668 0 0 2.51 6.526 8.38 6.526h.84s2.934.147 4.821.354c0 0-14.769 11.052-19.33 28.569 0 0 3.884-1.225 5.769-1.642 0 0-4.182 4.582-2.086 18.346 0 0 2.858.417 4.324 0 0 0 .166 11.447 13.814 17.496 0 0 1.701-4.588 5.263-5.632l16.327-18.663 16.324 18.663c3.565 1.044 5.265 5.632 5.265 5.632 13.646-6.049 13.865-17.496 13.865-17.496 1.466.417 5.462 1.075 5.462 1.075-1.339-13.325-4.02-15.822-4.02-15.822.746-5.123 6.514-1.957 6.514-1.957z" fill="#ED703A"/><path d="M25.72 36.561s-1.437 9.737 5.22 16.995l-1.32 19.477c-10.878-28.256-3.9-36.472-3.9-36.472z" fill="#FEFEFE"/><path d="M43.194 34.596s-2.892.066-4.5 1.965c0 0-2.826-5.07-10.382-6.177 0 0 1.102 1.327 1.073 2.135 0 0-3.164-1.679-6.246 3.148l3.195 1.48s.222 6.93 5.284 8.55c5.062 1.622 9.277-.92 9.277-.92s-.604-7.405 2.3-10.18z" fill="#FEFEFE"/><path d="M37.45 90.936s.83-.682-8.964-5.939c-15.049-8.082-7.068-22.795-7.068-22.795-.375 8.646 8.971 14.713 8.971 14.713s5.099-7.145 9.887-7.861c4.79-.72 6.535 3.063 6.535 3.063L37.45 90.936z" fill="#44302C"/><path d="M51.48 66.543c1.17 1.963-.783 4.305-.783 4.305-10.767 0-15.836 4.813-20.809-4.305-2.831-5.193-.609-15.547 2.273-16.47 0 0 2.887 5.236 9.335 7.095 5.395 1.556 7.032 4.428 9.984 9.375z" fill="#FEFEFE"/><path d="M51.359 67.01c-10.77 0-15.84 4.814-20.809-4.304-1.16-2.125-1.471-5.113-1.24-7.967-.998 3.683-1.125 8.678.578 11.804 4.973 9.118 10.042 4.305 20.81 4.305 0 0 1.826-2.2.872-4.124-.124.179-.211.286-.211.286z" fill="#B2B5B2"/><path d="M35.991 48.3s-5.46.954-8.249 5.726c-4.03 6.899-4.123 15.468 2.69 26.54l4.782-8.71s-8.141-6.614-4.675-16.875c.968-2.862 3.061-5.41 5.452-6.681z" fill="#44302C"/><path d="M29.221 57.24c-.332-.489 2.684-5.058 2.684-5.058s.815 3.727 6.995 6.025c0 0-7.348 2.468-9.679-.968zm-1.099 2.806s1.105 5.17 8.84 6.23c0 0-6.937 3.892-9.602 3.085l.762-9.315z" fill="#44302C"/><path d="M18.932 26.515s-4.192 1.044-6.499-3.337c0 0 1.258.834 3.25 0 0 0-4.716-2.293-4.297-9.383 0 0-4.429 11.261 3.76 16.683 0 0 2.109-2.712 3.786-3.963zM8.792 50.797c3.196-4.56 10.14-6.02 10.14-6.02s-3.172 10.201-2.544 19.657l5.03-2.232s-2.67 10.21 3.614 19.758c-8.597-5.719-9.905-12.395-9.905-12.395-1.465.417-4.4 2.71-4.4 2.71-2.096-13.761 2.304-21.478 2.304-21.478-1.885.417-4.239 0-4.239 0zm69.703-14.236s1.437 9.737-5.22 16.995l1.321 19.477c10.878-28.256 3.9-36.472 3.9-36.472z" fill="#FEFEFE"/><path d="M61.211 34.596s2.89.066 4.498 1.965c0 0 2.829-5.07 10.385-6.177 0 0-1.105 1.327-1.076 2.135 0 0 3.166-1.679 6.245 3.148l-3.762 1.214s.346 7.195-4.716 8.816c-5.062 1.622-9.275-.92-9.275-.92s.601-7.405-2.299-10.18z" fill="#FEFEFE"/><path d="M67.32 90.936s.224.915 8.96-5.939c14.978-11.749 6.705-22.795 6.705-22.795.374 8.646-8.605 14.713-8.605 14.713s-5.099-7.145-9.89-7.861c-4.787-.72-6.535 3.063-6.535 3.063l9.365 18.819z" fill="#44302C"/><path d="M52.925 66.543c-1.17 1.963.78 4.305.78 4.305 10.77 0 14.645 4.06 20.81-4.305 8.278-11.234-3.278-16.47-3.278-16.47s1.02 5.33-12.944 8.877c-5.44 1.382-2.418 2.646-5.368 7.593z" fill="#FEFEFE"/><path d="M75.912 53.997c.316 2.355-.34 5.267-2.914 8.761-6.066 8.232-9.923 4.433-20.305 4.31-.604 1.83 1.012 3.78 1.012 3.78 10.77 0 14.645 4.06 20.81-4.305 4.188-5.687 3.297-9.836 1.397-12.546z" fill="#B2B5B2"/><path d="M63.51 44.777s.897-5.48 6.757-8.082c2.392-1.06 7.018-2.049 10.997-1.029 0 0-1.83.494-3.193 1.48 0 0-.258 3.733-2.225 5.202-1.645 1.23-4.163 2.429-9.1 1.167 0 0-1.322 0-3.236 1.262z" fill="#44302C"/><path d="M66.745 41.694s3.522-4.076 9.878-4.454c0 0-.682.454-1.212 1.134 0 0 .137 5.902-8.666 3.32z" fill="#FEFEFE"/><path d="M66.745 40.685s2.892-3.161 6.601-3.161c0 0 1.242 2.085-.44 3.352-2.65 1.999-6.161-.191-6.161-.191z" fill="#44302C"/><path d="M71.801 39.62c0 .54.44.978.984.978a.983.983 0 00.986-.978.983.983 0 00-.986-.979.98.98 0 00-.984.979z" fill="#FEFEFE"/><path d="M61.214 53.556c.277 2.49-1.39 3.835-1.39 3.835-2.78-1.146-5.641-1.62-7.579-1.62-1.94 0-4.8.474-7.58 1.62 0 0-1.668-1.345-1.392-3.835 0 0-3.474 3.004-.864 8.3.588 1.196 1.56 2.49 3.986 3.557 1.764.774 2.997.315 3.83 1.7.836 1.382.557 3.735.557 3.735h2.924s-.277-2.353.556-3.735c.835-1.385 2.067-.926 3.83-1.7 2.426-1.068 3.399-2.361 3.987-3.557 2.61-5.296-.865-8.3-.865-8.3z" fill="#44302C"/><path d="M46.777 58.95s5.56-1.797 11.4 0c0 0-5.7-4.011-11.4 0z" fill="#FEFEFE"/><path d="M68.411 48.3s5.463.954 8.25 5.726c4.03 6.899 4.125 15.468-2.69 26.54l-5.035-9.246s8.397-6.078 4.927-16.34c-.967-2.861-3.06-5.408-5.452-6.68z" fill="#44302C"/><path d="M76.425 60.046s-1.104 5.17-8.84 6.23c0 0 6.937 3.892 9.602 3.085l-.761-9.315zm-1.26-2.516c.333-.488-2.668-5.348-2.668-5.348s.288 3.607-6.991 6.025c0 0 7.329 2.762 9.66-.677z" fill="#44302C"/><path d="M62.585 74.489s4.687.577 5.491 1.999c0 0 .538 7.777-5.491 15.243 0 0 1.07-14.22 0-17.242z" fill="#FEFEFE"/><path d="M62.585 74.489s2.502.307 4.163 1.028c0 0-1.722-1.028-1.72 3.184.003 2.978-.152 7.14-2.443 13.03 0 0 1.07-14.22 0-17.242z" fill="#B2B5B2"/><path d="M60.803 92.087c2.067 3.355 1.025 7.744 1.025 7.744-1.803 1.154-3.873-.422-3.873-.422s.876-1.131 1.706-2.923c1.27-2.74 1.142-4.399 1.142-4.399z" fill="#FEFEFE"/><path d="M60.803 92.087c1.038 2.647-.778 6.81-.778 6.81-1.505.713-2.07.511-2.07.511s.876-1.13 1.706-2.922c1.27-2.74 1.142-4.399 1.142-4.399z" fill="#B2B5B2"/><path d="M41.905 74.489s-4.69.577-5.494 1.999c0 0-.535 7.777 5.494 15.243 0 0-1.073-14.22 0-17.242zm1.78 17.598c-2.067 3.355-.638 7.744-.638 7.744 1.502 1.054 3.485-.422 3.485-.422s-.873-1.131-1.706-2.923c-1.268-2.74-1.141-4.399-1.141-4.399z" fill="#FEFEFE"/><path d="M43.684 92.087c-1.036 3.07.554 6.742.554 6.742.854.692 2.294.58 2.294.58s-.873-1.131-1.706-2.923c-1.268-2.74-1.142-4.399-1.142-4.399z" fill="#B2B5B2"/><path d="M63.795 22.617c-4.153.474-8.154.627-8.154.627l-3.164.477-3.166-.477s-3.006-.092-8.152-.627c-3.583-.37-7.43 1.172-8.88 4.692 0 0 4.712-3.675 11.405-1.547 2.953.936 5.434 2.565 8.964 2.565 2.992 0 5.668-1.629 8.618-2.565 6.694-2.128 11.405 1.547 11.405 1.547-1.447-3.52-5.301-5.099-8.876-4.692zm.759-6.309c-3.295-.535-9.124-.178-9.124-.178s-2.676.53-2.67.43l-2.671-.43s-5.832-.357-9.125.178c-3.83.627-7.123 2.87-8.12 5.293 0 0 4.761-3.72 11.413-2.66 2.718.433 4.838 1.07 8.502 1.07 2.95 0 5.782-.637 8.5-1.07 6.651-1.06 11.413 2.66 11.413 2.66-.997-2.423-4.29-4.666-8.118-5.293zm0-5.728c-3.295-.539-9.124-.895-9.124-.895h-5.341s-5.832.356-9.125.894c-3.83.624-7.123 2.867-8.12 5.29 0 0 4.761-3.716 11.413-2.656 2.718.433 4.838 1.067 8.502 1.067 2.95 0 5.782-.634 8.5-1.067 6.651-1.06 11.413 2.657 11.413 2.657-.997-2.424-4.29-4.667-8.118-5.29z" fill="#44302C"/><path d="M85.474 26.515s4.191 1.044 6.496-3.337c0 0-1.258.834-3.248 0 0 0 4.716-2.293 4.297-9.383 0 0 4.426 11.261-3.76 16.683 0 0-2.109-2.712-3.785-3.963z" fill="#FEFEFE"/><path d="M53.803 47.63s.295-2.48 1.735-3.58c4.925-3.764 3.952-4.965 3.952-4.965s1.452.535 1.721 2.633c0 0 2.755-4.748-4.144-10.185 0 0 8.439 3.105 8.439 8.262 0 0 .675-.432 1.814-1.332 0 0-1.321 4.391-3.81 6.314 0 0-5.42.086-9.707 2.854z" fill="#44302C"/><path d="M41.905 74.489s-2.502.307-4.165 1.028c0 0 1.721-1.028 1.719 3.184-.003 2.978.153 7.14 2.446 13.03 0 0-1.073-14.22 0-17.242z" fill="#B2B5B2"/><path d="M61.135 74.58c-2.703-1.775-15.062-1.775-17.764 0 0 0-.596 4.234 2.554 6l1.951-3.416s.501.724.501 1.96c0 0 1.943-.855 4.005-.855 1.714 0 3.891.9 3.891.9 0-1.236.356-2.005.356-2.005l2.444 3.327c2.489-2.647 2.062-5.91 2.062-5.91z" fill="#FEFEFE"/><path d="M61.135 74.58c-2.703-1.775-15.062-1.775-17.764 0 0 0-.596 4.234 2.554 6-2.106-2.448-.321-5.548-.321-5.548 3.074-1.642 10.419-1.64 13.121.134 0 0 1.3 2.303.348 5.325 2.489-2.647 2.062-5.91 2.062-5.91z" fill="#B2B5B2"/><path d="M47.436 99.112c1.463.96 8.144.96 9.605 0 0 0 .321-2.29-1.382-3.245l-1.054 1.847s-.27-.39-.27-1.06c0 0-1.051.465-2.166.465-.926 0-2.102-.488-2.102-.488 0 .668-.195 1.083-.195 1.083l-1.32-1.8c-1.345 1.433-1.116 3.198-1.116 3.198zm38.038-54.335s3.169 10.201 2.541 19.657l-5.03-2.232s2.67 10.21-3.614 19.758c8.597-5.719 9.904-12.395 9.904-12.395 1.469.417 4.403 2.71 4.403 2.71 2.096-13.761-2.307-21.478-2.307-21.478 1.888.417-5.897-6.02-5.897-6.02z" fill="#FEFEFE"/><path d="M91.255 67.076l-4.447-.16s.614 6.91-7.437 15.044c8.597-5.719 9.904-12.395 9.904-12.395 1.469.417 4.403 2.71 4.403 2.71 2.096-13.761-2.307-21.478-2.307-21.478s3.22 9.905-.116 16.279zm-78.076 0l4.447-.16s-.614 6.91 7.438 15.044c-8.6-5.719-9.908-12.395-9.908-12.395-1.466.417-4.4 2.71-4.4 2.71C8.66 58.514 13.06 50.797 13.06 50.797s-3.219 9.905.119 16.279z" fill="#B2B5B2"/><path d="M67.32 99.83s-4.245 5.452-7.295 4.2c-1.469-.6-6.633-1.222-7.822-1.175-1.192-.047-6.354.575-7.823 1.175-3.05 1.252-7.294-4.2-7.294-4.2s-.828 4.2 1.813 7.537c.984 1.243 6.984 3.667 13.053 3.683 6.235.018 12.541-2.405 13.554-3.683 2.639-3.337 1.814-7.536 1.814-7.536z" fill="#FEFEFE"/><path d="M51.96 108.807c-5.394 0-11.584-1.214-14.044-3.009.259.53.58 1.06.984 1.569.983 1.243 6.983 3.667 13.052 3.683 6.235.018 12.542-2.405 13.554-3.683a8.81 8.81 0 001.592-3.232c-1.052 2.461-6.936 4.672-15.138 4.672z" fill="#B2B5B2"/><path d="M63.51 44.777s3.37 3.14 11.656 1.46c0 0-6.953-1.001-9.66-3.79l-1.996 2.33zm14.627-8.793s3.126 4.024-1.11 8.604c0 0 1.1-3.408 0-5.947 0 0 .891-1.314 1.11-2.657zM76.28 22.228s6.88 9.606 4.983 22.36c0 0 5.331-4.968 3.238-16.5l-8.22-5.86zM40.877 44.777s-.897-5.48-6.757-8.082c-2.392-1.06-7.018-2.049-11-1.029 0 0 1.833.494 3.196 1.48 0 0 .258 3.733 2.222 5.202 1.648 1.23 4.163 2.429 9.104 1.167 0 0 1.32 0 3.235 1.262z" fill="#44302C"/><path d="M37.642 41.694s-3.522-4.076-9.879-4.454c0 0 .683.454 1.213 1.134 0 0-.137 5.902 8.666 3.32z" fill="#FEFEFE"/><path d="M37.642 40.685s-2.892-3.161-6.602-3.161c0 0-1.241 2.085.44 3.352 2.648 1.999 6.162-.191 6.162-.191z" fill="#44302C"/><path d="M32.585 39.62c0 .54-.44.978-.986.978a.98.98 0 01-.983-.978c0-.54.44-.979.983-.979.546 0 .986.438.986.979z" fill="#FEFEFE"/><path d="M51.383 47.63s.092-2.059-3.335-4.459c-4.116-2.885-3.15-4.086-3.15-4.086s-1.454.535-1.722 2.633c0 0-2.758-4.748 4.144-10.185 0 0-8.439 3.105-8.439 8.262 0 0-.675-.432-1.814-1.332 0 0 1.321 4.391 3.81 6.314 0 0 6.221.086 10.506 2.854z" fill="#44302C"/><path d="M40.877 44.777s-3.37 3.14-11.656 1.46c0 0 6.95-1.001 9.66-3.79l1.996 2.33zM26.25 35.984s-3.13 4.024 1.11 8.604c0 0-1.1-3.408 0-5.947 0 0-.891-1.314-1.11-2.657zm1.853-13.756s-6.875 9.606-4.982 22.36c0 0-5.328-4.968-3.238-16.5l8.22-5.86z" fill="#44302C"/><path d="M40.874 52.313s-17.437-3.87-35.818 2.473c0 0 20.06-12.452 35.818-2.473z" fill="#FEFEFE"/><path d="M40.874 52.313s-18.465-6.12-35.818 2.473c0 0 20.06-12.452 35.818-2.473z" fill="#2E2D2F"/><path d="M40.888 56.072S23.1 55.552 6 65.266c0 0 17.785-16.048 34.888-9.194z" fill="#FEFEFE"/><path d="M40.888 56.072S21.729 53.527 6 65.266c0 0 17.785-16.048 34.888-9.194z" fill="#2E2D2F"/><path d="M42.662 60.203s-17.788.593-34.347 11.358c0 0 16.912-17.134 34.347-11.358z" fill="#FEFEFE"/><path d="M42.662 60.203S23.402 58.86 8.315 71.561c0 0 16.912-17.134 34.347-11.358z" fill="#2E2D2F"/><path d="M64.726 52.313s17.437-3.87 35.817 2.473c0 0-20.062-12.452-35.817-2.473z" fill="#FEFEFE"/><path d="M64.726 52.313s18.462-6.12 35.817 2.473c0 0-20.062-12.452-35.817-2.473z" fill="#2E2D2F"/><path d="M64.712 56.072s17.788-.52 34.885 9.194c0 0-17.785-16.048-34.885-9.194z" fill="#FEFEFE"/><path d="M64.712 56.072s19.156-2.545 34.885 9.194c0 0-17.785-16.048-34.885-9.194z" fill="#2E2D2F"/><path d="M62.938 60.203s17.785.593 34.347 11.358c0 0-16.915-17.134-34.347-11.358z" fill="#FEFEFE"/><path d="M62.938 60.203s19.259-1.343 34.347 11.358c0 0-16.915-17.134-34.347-11.358z" fill="#2E2D2F"/><path d="M54.979 59.86s-1.052.461-2.165.461c-.925 0-2.103-.488-2.103-.488 0 .67-.193 1.084-.193 1.084h4.732s-.271-.391-.271-1.057zm-4.461 1.057l-1.32-1.797s-.407 1.975 1.32 1.797zm5.787-1.844l-1.054 1.844s1.679-.097 1.054-1.844z" fill="#B2B5B2"/></svg>